<?xml version="1.0" encoding="utf-8" ?>	<!-- Generator: Assembly 2.4 - http://assemblyapp.co -->	<svg version="1.1" xmlns="http://www.w3.org/2000/svg" xmlns:xlink="http://www.w3.org/1999/xlink" width="4096.00" height="4096.00" viewBox="0 0 4096.0 4096.0">		<g id="document" transform="scale(1.0 1.0) translate(2048.0 2048.0)">			<path d="M-44.7813,1836.86 C199.705,1837.39 398.049,1639.89 398.575,1395.41 C399.101,1150.92 201.608,952.578 -42.8782,952.052 C-287.365,951.526 -485.708,1149.02 -486.234,1393.5 C-486.76,1637.99 -289.268,1836.33 -44.7813,1836.86 Z " fill="#000000" fill-opacity="1.00" />			<path d="M-185.445,707.846 C241.081,767.063 1056.12,-450.088 1115.34,-876.614 C1174.56,-1303.14 877.212,-1696.36 450.686,-1755.58 L-185.445,707.846 Z " fill="#000000" fill-opacity="1.00" />			<path d="M409.349,-1453.44 L470.806,-1751.27 C-351.213,-1920.9 -792.916,-1538.6 -962.54,-716.582 L-664.707,-655.124 C-528.885,-1313.34 -248.862,-1589.26 409.349,-1453.44 Z " fill="#000000" fill-opacity="1.00" />			<path d="M-665.517,-655.765 C-408.71,-603.871 -158.81,-769.752 -106.915,-1026.56 C-55.0207,-1283.36 -220.902,-1533.27 -477.708,-1585.16 L-665.517,-655.765 Z " fill="#000000" fill-opacity="1.00" />		</g>	</svg>