<?xml version="1.0" encoding="utf-8" ?>	<!-- Generator: Assembly 2.4 - http://assemblyapp.co -->	<svg version="1.1" xmlns="http://www.w3.org/2000/svg" xmlns:xlink="http://www.w3.org/1999/xlink" width="4096.00" height="4096.00" viewBox="0 0 4096.0 4096.0">		<g id="document" transform="scale(1.0 1.0) translate(2048.0 2048.0)">			<path d="M-1738.07,-1010.65 C-1738.07,-871.682 -1624.37,-757.984 -1485.41,-757.985 L1485.41,-757.985 C1624.37,-757.985 1738.07,-871.682 1738.07,-1010.65 C1738.07,-1149.61 1624.37,-1263.31 1485.41,-1263.31 L-1485.41,-1263.31 C-1624.37,-1263.31 -1738.07,-1149.61 -1738.07,-1010.65 Z " fill="#000000" fill-opacity="1.00" />			<path d="M-1485.41,252.662 L1485.41,252.661 C1624.37,252.661 1738.07,138.964 1738.07,-7.59735e-05 C1738.07,-138.964 1624.37,-252.662 1485.41,-252.662 L-1485.41,-252.661 C-1624.37,-252.661 -1738.07,-138.964 -1738.07,7.59735e-05 C-1738.07,138.964 -1624.37,252.662 -1485.41,252.662 Z " fill="#000000" fill-opacity="1.00" />			<path d="M-1485.41,1263.31 L1485.41,1263.31 C1624.37,1263.31 1738.07,1149.61 1738.07,1010.65 C1738.07,871.682 1624.37,757.984 1485.41,757.985 L-1485.41,757.985 C-1624.37,757.985 -1738.07,871.682 -1738.07,1010.65 C-1738.07,1149.61 -1624.37,1263.31 -1485.41,1263.31 Z " fill="#000000" fill-opacity="1.00" />			<path d="M-1277.23,-549.805 C-1022.56,-549.805 -816.39,-755.971 -816.39,-1010.65 C-816.39,-1265.32 -1022.56,-1471.49 -1277.23,-1471.49 C-1531.91,-1471.49 -1738.07,-1265.32 -1738.07,-1010.65 C-1738.07,-755.971 -1531.91,-549.805 -1277.23,-549.805 Z " fill="#000000" fill-opacity="1.00" />			<path d="M3.37779e-05,460.841 C254.675,460.841 460.841,254.675 460.841,-2.0144e-05 C460.841,-254.675 254.675,-460.841 -6.51006e-06,-460.841 C-254.675,-460.841 -460.841,-254.675 -460.841,2.0144e-05 C-460.841,254.675 -254.675,460.841 3.37779e-05,460.841 Z " fill="#000000" fill-opacity="1.00" />			<path d="M1277.23,1471.49 C1531.91,1471.49 1738.07,1265.32 1738.07,1010.65 C1738.07,755.971 1531.91,549.805 1277.23,549.805 C1022.56,549.805 816.39,755.971 816.39,1010.65 C816.39,1265.32 1022.56,1471.49 1277.23,1471.49 Z " fill="#000000" fill-opacity="1.00" />		</g>	</svg>