<?xml version="1.0" encoding="utf-8" ?>	<!-- Generator: Assembly 2.4 - http://assemblyapp.co -->	<svg version="1.1" xmlns="http://www.w3.org/2000/svg" xmlns:xlink="http://www.w3.org/1999/xlink" width="4096.00" height="4096.00" viewBox="0 0 4096.0 4096.0">		<g id="document" transform="scale(1.0 1.0) translate(2048.0 2048.0)">			<path d="M1155.83,-922.117 C1284.29,-1050.58 1044.55,-1277.06 922.718,-1155.23 C800.887,-1033.4 1.80572,-234.318 1.80572,-234.318 C1.80572,-234.318 -818.134,-1054.26 -919.107,-1155.23 C-1020.08,-1256.2 -1259.29,-1029.19 -1152.22,-922.117 C-1045.15,-815.047 -231.307,-1.20474 -231.307,-1.20474 C-231.307,-1.20474 -1061.97,829.454 -1152.22,919.708 C-1242.47,1009.96 -1018.87,1252.59 -919.107,1152.82 C-819.34,1053.05 1.80572,231.908 1.80572,231.908 C1.80572,231.908 812.408,1042.51 922.718,1152.82 C1033.03,1263.13 1259.06,1022.94 1155.83,919.708 C1052.6,816.478 234.919,-1.20474 234.919,-1.20474 C234.919,-1.20474 1027.37,-793.656 1155.83,-922.117 Z " fill="#000000" fill-opacity="1.00" />		</g>	</svg>